HIERARCHY
ROOT hip
{
	OFFSET 0.000000 0.000000 0.000000 
	CHANNELS 6 Xposition Yposition Zposition Xrotation Zrotation Yrotation
	JOINT abdomen
	{
		OFFSET 0.000000 3.402643 0.000000 
		CHANNELS 3 Xrotation Zrotation Yrotation
		JOINT chest
		{
			OFFSET 0.000000 8.438565 -0.680529 
			CHANNELS 3 Xrotation Zrotation Yrotation
			JOINT neck
			{
				OFFSET 0.000000 10.207942 -0.272212 
				CHANNELS 3 Xrotation Zrotation Yrotation
				JOINT head
				{
					OFFSET 0.000000 3.130431 0.000000 
					CHANNELS 3 Xrotation Zrotation Yrotation
					End Site
					{
						OFFSET 0.000000 3.130435 0.000000 
					}
				}
			}
			JOINT lCollar
			{
				OFFSET 3.470700 6.669187 -0.816635 
				CHANNELS 3 Yrotation Zrotation Xrotation
				JOINT lShldr
				{
					OFFSET 3.198488 0.000000 0.000000 
					CHANNELS 3 Zrotation Yrotation Xrotation
					JOINT lForeArm
					{
						OFFSET 10.139888 0.000000 0.000000 
						CHANNELS 3 Yrotation Zrotation Xrotation
						JOINT lHand
						{
							OFFSET 8.370511 0.000000 0.000000 
							CHANNELS 3 Zrotation Yrotation Xrotation
							End Site
							{
								OFFSET 4.083176 0.000000 0.000000 
							}
						}
					}
				}
			}
			JOINT rCollar
			{
				OFFSET -3.470700 6.669187 -0.816635 
				CHANNELS 3 Yrotation Zrotation Xrotation
				JOINT rShldr
				{
					OFFSET -3.198488 0.000000 0.000000 
					CHANNELS 3 Zrotation Yrotation Xrotation
					JOINT rForeArm
					{
						OFFSET -10.139888 0.000000 0.000000 
						CHANNELS 3 Yrotation Zrotation Xrotation
						JOINT rHand
						{
							OFFSET -8.370511 0.000000 0.000000 
							CHANNELS 3 Zrotation Yrotation Xrotation
							End Site
							{
								OFFSET -4.083176 0.000000 0.000000 
							}
						}
					}
				}
			}
		}
	}
	JOINT lThigh
	{
		OFFSET 5.308129 -1.633274 1.361059 
		CHANNELS 3 Xrotation Zrotation Yrotation
		JOINT lShin
		{
			OFFSET -2.041588 -20.007561 0.000000 
			CHANNELS 3 Xrotation Zrotation Yrotation
			JOINT lFoot
			{
				OFFSET 0.000000 -19.190928 -1.224953 
				CHANNELS 3 Xrotation Yrotation Zrotation
				End Site
				{
					OFFSET 0.000000 -2.449906 4.627600 
				}
			}
		}
	}
	JOINT rThigh
	{
		OFFSET -5.308129 -1.633274 1.361059 
		CHANNELS 3 Xrotation Zrotation Yrotation
		JOINT rShin
		{
			OFFSET 2.041588 -20.007561 0.000000 
			CHANNELS 3 Xrotation Zrotation Yrotation
			JOINT rFoot
			{
				OFFSET 0.000000 -19.190928 -1.224953 
				CHANNELS 3 Xrotation Yrotation Zrotation
				End Site
				{
					OFFSET 0.000000 -2.449906 4.627600 
				}
			}
		}
	}
}
MOTION
Frames: 10
Frame Time: 0.011111
-2.005974 54.306355 26.294237 7.271700 -8.026714 -3.551003 33.311501 6.515781 10.260893 -26.115158 -5.230064 2.061713 -12.255459 0.272519 0.154338 -6.905990 -2.973154 0.619964 8.861669 -1.932660 3.351237 -68.277832 -5.652281 47.219536 -90.643272 6.273186 35.539955 8.524705 12.647240 -18.196667 -6.806992 -0.756156 2.905732 62.313244 40.126148 49.553936 93.091621 -7.742333 36.951588 -8.534408 -12.637552 50.618999 -45.386711 13.211997 -4.711485 55.483147 -3.217316 -7.750738 -1.550029 -3.789813 -3.332970 35.915356 -0.945954 13.757943 -0.105624 5.941245 0.703350 33.205589 -15.206103 8.305348 
-1.965717 54.433365 27.995010 7.553326 -8.235507 -3.295149 33.053219 6.725985 10.305208 -26.214113 -5.316073 2.061138 -13.017628 0.288609 0.081762 -6.142968 -3.096953 0.458735 8.861669 -1.932660 3.351237 -68.621780 -5.987338 46.685577 -90.912888 6.459246 35.715107 8.524705 12.647240 -17.923233 -6.806992 -0.756156 2.905732 62.155548 39.558228 50.519497 93.159317 -7.775277 36.994709 -8.534408 -12.637552 50.199078 -44.832462 13.280840 -5.424297 50.216599 -3.753779 -7.229259 -0.072603 -3.564729 -3.213773 35.809292 -0.565831 14.213943 2.402024 5.974984 1.015261 32.350231 -14.309120 7.641991 
-1.953859 54.529797 29.653027 7.460359 -8.467343 -3.054450 33.290436 6.788339 10.308415 -26.487123 -5.163019 2.049807 -13.232645 0.372488 0.052271 -6.017399 -3.391785 0.446719 8.861669 -1.932660 3.351237 -69.150688 -6.380073 46.258034 -91.070419 6.565096 35.808403 8.524705 12.647240 -18.186901 -6.806992 -0.756156 2.905732 61.841953 38.794716 51.526314 93.149925 -7.769986 36.984344 -8.534408 -12.637552 50.013535 -43.710239 13.534898 -5.873439 45.111916 -4.231287 -6.676212 0.097319 -3.136958 -3.180729 33.758003 0.576627 14.587901 9.872026 5.986051 2.098004 28.589073 -13.050353 6.628515 
-1.931702 54.587528 31.320408 7.243357 -8.969712 -3.035223 33.704540 7.078411 10.552041 -26.681747 -5.028809 2.061686 -13.573906 0.254050 0.141069 -5.763633 -3.276409 0.562963 8.861669 -1.932660 3.351237 -69.626114 -6.817809 45.941097 -91.266357 6.690942 35.923157 8.524705 12.647240 -18.294325 -6.806992 -0.756156 2.905732 61.419617 38.165611 52.589970 92.960724 -7.673360 36.885975 -8.534408 -12.637552 49.779156 -42.344646 14.148300 -6.280245 40.404034 -4.631086 -6.155138 -0.109986 -2.606746 -3.174806 32.809731 1.504881 15.342879 15.208629 5.895903 2.844802 26.247972 -12.454557 6.168815 
-1.907361 54.599075 32.951900 7.056716 -9.538811 -3.182805 34.143173 7.354644 10.932718 -26.828886 -5.056243 2.127804 -13.583505 0.279952 0.164975 -6.193688 -3.172183 0.623168 8.861669 -1.932660 3.351237 -69.883331 -7.417703 45.752911 -91.481049 6.826453 36.049000 8.524705 12.647240 -18.479872 -6.806992 -0.756156 2.905732 61.275391 37.479263 53.513531 92.670578 -7.519232 36.732708 -8.534408 -12.637552 49.495953 -41.070683 14.911186 -6.673908 36.286293 -4.923607 -5.657001 -0.284252 -2.137235 -3.168517 31.974756 2.316226 16.240345 20.053579 5.759509 3.515847 24.614405 -12.567897 6.127800 
-1.892693 54.572861 34.584637 6.867965 -10.022245 -3.395042 34.491501 7.498893 11.183406 -26.956526 -5.086578 2.172968 -13.183305 0.482461 0.136938 -7.230411 -3.182816 0.670024 8.861669 -1.932660 3.351237 -70.112442 -8.197691 45.415958 -91.605637 6.905578 36.122868 8.524705 12.647240 -18.782606 -6.806992 -0.756156 2.905732 61.402847 36.579418 54.458256 92.326439 -7.330152 36.539093 -8.534408 -12.637552 49.535015 -39.813786 15.612211 -6.915914 32.947475 -5.142948 -5.251199 -0.931067 -1.369771 -3.182521 31.159781 3.115760 15.884262 24.765720 5.584178 4.151614 24.107925 -12.307155 5.958364 
-1.850564 54.520432 36.312244 6.761670 -10.264133 -3.885605 34.384949 7.404478 11.446936 -26.456713 -5.122916 2.229146 -13.379211 0.741930 0.084809 -7.671161 -3.267543 0.674908 8.861669 -1.932660 3.351237 -70.392639 -9.492866 45.138912 -91.587471 6.894606 36.112160 8.524705 12.647240 -18.977921 -6.806992 -0.756156 2.905732 61.668869 35.807674 55.053226 91.878723 -7.069521 36.292549 -8.534408 -12.637552 50.042828 -38.579182 16.150778 -6.961786 30.513716 -5.298536 -4.930538 -2.007472 -0.209480 -3.153714 30.244265 3.515856 15.523063 29.427149 5.345806 4.767958 24.416452 -12.743003 6.181676 
-1.830592 54.396225 37.930946 6.382154 -10.538395 -3.520839 34.893440 7.579229 11.283186 -26.104475 -5.163502 2.131948 -13.916631 0.861778 0.071665 -7.865488 -3.058198 0.688696 8.861669 -1.932660 3.351237 -70.633049 -11.362846 45.071983 -91.489586 6.832776 36.059246 8.524705 12.647240 -18.821669 -6.806992 -0.756156 2.905732 61.880203 35.215763 55.303513 91.335594 -6.738880 35.975674 -8.534408 -12.637552 50.482281 -37.335014 16.286194 -7.006881 28.683544 -5.395929 -4.713674 -2.695217 0.767629 -3.113236 29.362526 4.346129 14.672295 34.391422 5.045302 5.400084 24.509945 -13.875201 6.726323 
-1.805314 54.257355 39.609871 5.925418 -10.528775 -3.413391 35.148922 7.359956 11.102494 -25.663351 -5.160273 2.089435 -14.003698 0.764828 0.165653 -8.399472 -2.404608 0.824611 8.861669 -1.932660 3.351237 -70.691299 -13.106266 45.229053 -91.400734 6.775954 36.006901 8.524705 12.647240 -18.587292 -6.806992 -0.756156 2.905732 62.117451 34.357529 55.541248 90.798508 -6.382550 35.643665 -8.534408 -12.637552 50.511574 -35.754047 16.237675 -6.466690 27.499493 -5.469764 -4.527016 -3.197251 2.028618 -3.008097 28.257629 4.756347 13.898237 39.516617 4.683292 6.017992 24.511986 -15.408912 7.459391 
-1.866792 54.051392 41.053814 5.824764 -10.221256 -1.725038 35.411739 7.324373 9.598122 -26.240183 -4.892291 1.719829 -13.240967 0.679502 0.291135 -9.392053 -1.651319 0.988212 8.861669 -1.932660 3.351237 -70.501610 -14.523971 45.481285 -91.310356 6.720225 35.954720 8.524705 12.647240 -18.157606 -6.806992 -0.756156 2.905732 62.469971 32.972248 55.799816 90.222023 -5.973737 35.295078 -8.534408 -12.637552 50.677593 -35.129894 15.261499 -6.009901 26.747431 -5.498917 -4.436946 -2.403446 2.389345 -3.005606 26.194633 5.732702 11.762466 44.983692 4.245792 6.661256 24.559858 -17.670803 8.561416 
